<svg width="2428" height="250" viewBox="0 0 2428 250" fill="none" xmlns="http://www.w3.org/2000/svg"><path fill-rule="evenodd" clip-rule="evenodd" d="M540.895 249.25L622.06 0.438354H744.65L827.203 249.25H733.846L718.322 204.427H644.978L629.401 249.25H540.895ZM683.614 55.5469L648.194 154.13H716.233L683.614 55.5469ZM1579.32 249.354L1660.48 0.542056H1783.06L1865.64 249.354H1772.27L1756.77 204.531H1683.41L1667.84 249.354H1579.32ZM1722.04 55.6506L1686.63 154.234H1754.67L1722.04 55.6506ZM848.538 249.25V0.438354H1025.02C1044.94 0.438354 1061.15 7.5458 1073.91 16.2615C1086.64 24.9512 1097.57 36.17 1101.93 51.4355C1108.11 73.082 1106.74 90.5004 1102.63 102.433C1098.5 114.378 1091.33 124.403 1081.1 132.432C1070.87 140.46 1062.33 146.776 1043.2 151.368C1050.58 158.877 1050.52 159.175 1059.23 165.349C1071.1 173.74 1082.05 174.934 1122.64 175.102L1192.44 175.128V249.25L1122.16 249.432C1045.67 249.626 1018.74 249.03 1004.08 235.878C985.654 219.355 965.616 199.991 937.77 167.074V249.25H848.538ZM937.757 62.4338V108.321H999.947C1003.27 108.321 1006.9 107.089 1010.75 104.611C1014.6 102.147 1016.7 95.9087 1016.94 85.9091C1016.35 76.3763 1014.02 70.0859 1010 67.0251C1005.97 63.9772 1002.53 62.4338 999.843 62.4338H937.757ZM2427.24 0.542056H2245.16C2213.72 0.542056 2195.01 15.8983 2189.08 46.7145C2183.18 77.4658 2200.05 111.239 2239.74 147.995C2263.79 167.126 2259.62 176.179 2227.41 175.232H2185.07V175.128L2162.63 175.102C2122.03 174.934 2111.08 173.753 2099.23 165.349C2090.51 159.162 2090.56 158.877 2083.19 151.368C2102.33 146.776 2110.86 140.46 2121.09 132.432C2131.33 124.403 2138.52 114.378 2142.62 102.433C2146.72 90.5004 2148.1 73.082 2141.91 51.4355C2137.55 36.17 2126.63 24.9512 2113.92 16.2615C2101.16 7.5458 2084.95 0.438354 2065.02 0.438354H1888.54V249.25H1977.76V167.074C2005.6 199.991 2025.63 219.355 2044.08 235.878C2058.72 249.03 2085.65 250.028 2162.15 249.432L2175.42 249.328V249.354H2306.72C2342.23 243.349 2360.4 224.997 2361.1 194.181C2361.73 163.416 2343.95 131.329 2306.72 99.0734C2286.38 81.4604 2290.43 74.5994 2319.71 74.5994H2427.24V0.542056ZM1977.76 62.4338V108.321H2039.95C2043.3 108.321 2046.89 107.089 2050.74 104.611C2054.6 102.147 2056.7 95.9087 2056.93 85.9091C2056.35 76.3763 2054.01 70.0859 2049.99 67.0251C2045.96 63.9772 2042.55 62.4338 2039.86 62.4338H1977.76ZM196.768 0.438354C165.317 0.438354 146.653 15.7945 140.7 46.6107C134.799 77.375 150.7 112.251 191.334 147.892C214.433 168.15 211.23 175.128 179.026 175.128H0.756348V249.25H258.323C294.353 249.25 312.044 224.88 312.705 194.077C313.367 163.326 295.261 131.615 258.323 98.9697C237.675 81.7328 242.046 73.6137 271.332 74.5087H381.86V249.263H462.143V74.4957H574.227V0.438354H196.768ZM1374.2 0.438354L1352.12 74.366L1327.62 0.438354H1235.53L1316.69 249.25H1396.21L1423.45 166.127L1450.66 249.25H1530.18L1611.34 0.438354H1519.26L1494.76 74.366L1472.67 0.438354H1374.2Z" fill="white"/></svg>
